<?xml version="1.0" encoding="iso-8859-1"?>
<!-- Uploaded to: SVG Repo, www.svgrepo.com, Generator: SVG Repo Mixer Tools -->
<svg version="1.1" id="Layer_1" xmlns="http://www.w3.org/2000/svg" xmlns:xlink="http://www.w3.org/1999/xlink" 
	 viewBox="0 0 512 512" xml:space="preserve">
<path style="fill:#FE9901;" d="M373.266,63.752H138.733c-6.995,0-12.665-5.67-12.665-12.665V20.64
	c0-6.995,5.67-12.665,12.665-12.665h234.533c6.995,0,12.665,5.67,12.665,12.665v30.446
	C385.932,58.081,380.261,63.752,373.266,63.752z"/>
<path style="fill:#ED8803;" d="M373.266,7.974h-24.078c6.995,0,12.665,5.67,12.665,12.665v30.446c0,6.995-5.67,12.665-12.665,12.665
	h24.078c6.995,0,12.665-5.67,12.665-12.665V20.64C385.932,13.645,380.261,7.974,373.266,7.974z"/>
<path style="fill:#37CC8F;" d="M359.393,103.824V63.752H152.606v40.071l-28.855,36.244c-8.487,10.66-13.108,23.884-13.108,37.511
	v286.781c0,21.906,17.758,39.666,39.666,39.666h211.379c21.906,0,39.666-17.758,39.666-39.666V177.577
	c0-13.627-4.621-26.85-13.108-37.511L359.393,103.824z"/>
<path style="fill:#2AA86F;" d="M388.247,140.068l-28.855-36.244V63.752h-24.078v40.071l28.855,36.244
	c8.487,10.66,13.108,23.884,13.108,37.511v286.781c0,21.907-17.758,39.666-39.666,39.666h24.078
	c21.906,0,39.666-17.758,39.666-39.666V177.577C401.355,163.952,396.734,150.728,388.247,140.068z"/>
<rect x="110.642" y="188.834" style="fill:#FE9901;" width="290.715" height="231.067"/>
<rect x="377.338" y="188.834" style="fill:#ED8803;" width="24.013" height="231.067"/>
<g>
	<path style="fill:#FFFFFF;" d="M256.203,314.508c-0.069,0-0.338,0-0.407,0c-30.961,0-61.785,64.85-41.866,74.148
		c8.699,4.061,17.783,3.524,25.259,1.631c5.502-1.394,11.157-2.081,16.81-2.064c5.653-0.017,11.308,0.67,16.81,2.064
		c7.475,1.893,16.56,2.43,25.259-1.631C317.988,379.358,287.164,314.508,256.203,314.508z"/>
	<path style="fill:#FFFFFF;" d="M192.583,269.111c6.09,13.529,29.296,35.774,42.825,29.684c13.529-6.09,12.258-38.211,6.168-51.74
		c-6.09-13.529-21.996-19.559-35.524-13.468C192.522,239.677,186.491,255.582,192.583,269.111z"/>
	<path style="fill:#FFFFFF;" d="M155.461,334.815c10.585,7.027,37.549,12.567,44.576,1.982c7.027-10.585-8.543-33.285-19.128-40.312
		c-10.585-7.027-24.862-4.143-31.889,6.441C141.993,313.51,144.877,327.788,155.461,334.815z"/>
	<path style="fill:#FFFFFF;" d="M319.416,269.111c-6.09,13.529-29.296,35.774-42.825,29.684c-13.529-6.09-12.258-38.211-6.168-51.74
		c6.09-13.529,21.996-19.559,35.524-13.468C319.477,239.677,325.508,255.582,319.416,269.111z"/>
	<path style="fill:#FFFFFF;" d="M356.538,334.815c-10.585,7.027-37.549,12.567-44.576,1.982
		c-7.027-10.585,8.543-33.285,19.128-40.312s24.862-4.143,31.889,6.441C370.006,313.51,367.122,327.788,356.538,334.815z"/>
</g>
<path d="M394.485,135.1l-27.118-34.064V71.726h5.899c11.381,0,20.64-9.259,20.64-20.64V20.641C393.906,9.259,384.647,0,373.266,0
	H138.733c-11.381,0-20.64,9.259-20.64,20.641v30.446c0,11.381,9.259,20.64,20.64,20.64h5.899v29.311l-27.118,34.064
	c-9.572,12.023-14.844,27.109-14.844,42.478v11.255v172.872c0,4.404,3.569,7.974,7.974,7.974c4.405,0,7.974-3.57,7.974-7.974
	V196.808h274.762v215.121H118.618v-24.085v-0.008c0-4.404-3.569-7.974-7.974-7.974c-4.405,0-7.974,3.57-7.974,7.974v0.008v32.059
	v44.457c0,26.269,21.371,47.64,47.64,47.64h211.38c26.269,0,47.64-21.371,47.64-47.64v-44.457v-231.07v-11.255
	C409.329,162.21,404.058,147.124,394.485,135.1z M134.042,51.086v-9.864h79.029c4.405,0,7.974-3.57,7.974-7.974
	s-3.569-7.974-7.974-7.974h-79.029v-4.633c0-2.587,2.104-4.692,4.691-4.692h234.533c2.587,0,4.691,2.104,4.691,4.692v30.446
	c0,2.587-2.104,4.691-4.691,4.691h-13.873H152.606h-13.873C136.146,55.777,134.042,53.673,134.042,51.086z M118.618,180.859v-3.28
	c0-11.776,4.039-23.333,11.372-32.544l28.855-36.244c1.125-1.412,1.736-3.163,1.736-4.966V71.726h190.837v32.098
	c0,1.804,0.611,3.556,1.736,4.966l28.855,36.244c7.332,9.211,11.372,20.769,11.372,32.544v3.28L118.618,180.859L118.618,180.859z
	 M361.689,496.051H150.31c-17.475,0-31.691-14.217-31.691-31.691v-36.482h274.762v36.482
	C393.381,481.834,379.164,496.051,361.689,496.051z"/>
<path d="M255.796,306.533c-25.957,0-49.469,34.129-54.899,58.598c-4.762,21.462,5.17,28.655,9.661,30.75
	c9.011,4.206,19.529,4.936,30.589,2.135c4.77-1.208,9.698-1.82,14.647-1.82h0.23h0.182c4.951,0,9.879,0.612,14.647,1.82
	c4.403,1.114,8.748,1.68,12.916,1.681c0.001,0,0.001,0,0.001,0c6.302,0,12.248-1.284,17.67-3.816
	c4.492-2.097,14.423-9.29,9.661-30.75c-5.429-24.469-28.942-58.598-54.899-58.598H255.796z M295.532,368.586
	c1.626,7.33,0.783,12.088-0.836,12.844c-5.674,2.647-12.471,3.014-19.929,1.126c-6.048-1.531-12.292-2.308-18.562-2.308h-0.182
	h-0.23c-6.269,0-12.515,0.776-18.562,2.308c-7.461,1.888-14.257,1.52-19.928-1.126c-1.618-0.756-2.462-5.515-0.837-12.845
	c4.605-20.754,23.657-46.104,39.329-46.104h0.407C271.874,322.482,290.927,347.833,295.532,368.586z"/>
<path d="M217.063,223.238c-4.943,0-9.75,1.036-14.287,3.078c-8.485,3.82-14.975,10.715-18.274,19.417
	c-3.3,8.702-3.012,18.167,0.808,26.653c6.348,14.1,27.543,35.417,45.025,35.418c0.001,0,0.001,0,0.002,0
	c2.977,0,5.784-0.585,8.344-1.736c19.766-8.899,16.764-47.629,10.166-62.286C243.228,231.302,230.752,223.238,217.063,223.238z
	 M232.135,291.523c-0.494,0.222-1.083,0.331-1.797,0.331h-0.001c-9.062-0.001-25.644-15.27-30.482-26.017
	c-2.071-4.601-2.228-9.733-0.438-14.451c1.789-4.719,5.308-8.457,9.908-10.528c2.464-1.109,5.067-1.671,7.738-1.671
	c7.426,0,14.193,4.373,17.241,11.142C240.212,263.454,238.895,288.479,232.135,291.523z"/>
<path d="M142.378,298.514c-4.577,6.894-6.196,15.158-4.557,23.268c1.637,8.111,6.337,15.099,13.23,19.676
	c8.039,5.338,22.018,9.212,33.241,9.212c0.001,0,0.001,0,0.002,0c13.31,0,19.521-5.146,22.388-9.462
	c4.852-7.308,3.922-17.871-2.617-29.748c-4.838-8.786-12.196-17.273-18.743-21.619c-5.097-3.384-11.015-5.173-17.114-5.173
	C157.79,284.669,148.134,289.845,142.378,298.514z M190.094,319.154c4.02,7.301,4.176,11.914,3.3,13.232
	c-0.576,0.868-3.14,2.335-9.101,2.335c0,0-0.001,0-0.002,0c-8.989,0-19.674-3.4-24.419-6.55c-3.345-2.221-5.625-5.611-6.419-9.546
	c-0.795-3.935-0.01-7.945,2.21-11.29c2.793-4.207,7.482-6.719,12.543-6.719c2.949,0,5.818,0.868,8.292,2.51
	C180.12,305.532,185.918,311.572,190.094,319.154z"/>
<path d="M309.223,226.316c-4.537-2.041-9.343-3.078-14.287-3.078c-13.689,0-26.165,8.064-31.784,20.543
	c-6.598,14.657-9.598,53.386,10.167,62.286c2.558,1.152,5.366,1.736,8.344,1.736c17.481,0,38.677-21.318,45.026-35.418
	c3.82-8.486,4.107-17.951,0.808-26.653C324.198,237.032,317.708,230.135,309.223,226.316z M312.146,265.837
	c-4.839,10.747-21.42,26.017-30.482,26.017c-0.716,0-1.304-0.108-1.797-0.331c-6.76-3.044-8.079-28.069-2.17-41.195
	c3.047-6.769,9.814-11.142,17.241-11.142c2.672,0,5.275,0.562,7.738,1.671c4.601,2.071,8.12,5.81,9.908,10.528
	C314.372,256.104,314.217,261.237,312.146,265.837z"/>
<path d="M305.319,341.208c2.865,4.317,9.077,9.462,22.39,9.462c11.222,0,25.201-3.875,33.241-9.212
	c6.893-4.576,11.593-11.564,13.231-19.674s0.02-16.374-4.557-23.268c-5.756-8.67-15.412-13.846-25.83-13.846
	c-6.099,0-12.018,1.788-17.115,5.173C313.46,298.617,294.856,325.451,305.319,341.208z M335.5,303.128
	c2.474-1.643,5.342-2.51,8.293-2.51c5.061,0,9.75,2.511,12.543,6.719c2.22,3.345,3.005,7.353,2.211,11.289
	c-0.795,3.935-3.076,7.326-6.42,9.547c-4.744,3.149-15.429,6.55-24.419,6.55c-5.962,0-8.527-1.467-9.104-2.335
	C315.742,328.075,325.361,309.86,335.5,303.128z"/>
<path d="M239.12,41.222h24.963c4.405,0,7.974-3.57,7.974-7.974s-3.569-7.974-7.974-7.974H239.12c-4.405,0-7.974,3.57-7.974,7.974
	S234.715,41.222,239.12,41.222z"/>
</svg>